<?xml version="1.0" encoding="utf-8"?>
<!-- Generator: Adobe Illustrator 16.0.0, SVG Export Plug-In . SVG Version: 6.00 Build 0)  -->
<!DOCTYPE svg PUBLIC "-//W3C//DTD SVG 1.1//EN" "http://www.w3.org/Graphics/SVG/1.1/DTD/svg11.dtd">
<svg version="1.1" xmlns="http://www.w3.org/2000/svg" xmlns:xlink="http://www.w3.org/1999/xlink" x="0px" y="0px"
	 width="266.99px" height="78px" viewBox="0 0 266.99 78" enable-background="new 0 0 266.99 78" xml:space="preserve">
<g id="Layer_1" display="none">
</g>
<g id="base-encabezado">
</g>
<g id="base-elementos_sobrepuestos">
</g>
<g id="textos_1">
</g>
<g id="elementos_para_exportar">
	<g>
		<g>
			<path fill="#003764" d="M102.69,26.194c0-2.624-0.684-4.555-2.049-5.794c-1.367-1.238-3.145-1.859-5.331-1.859
				c-1.64,0-3.245,0.246-4.811,0.738c-1.568,0.493-2.972,1.158-4.21,1.996l-1.913-3.28c0.802-0.546,1.686-1.02,2.651-1.421
				c0.965-0.4,1.959-0.738,2.979-1.011c1.021-0.274,2.032-0.482,3.035-0.629c1.002-0.145,1.939-0.218,2.814-0.218
				c2.333,0,4.393,0.274,6.178,0.82s3.299,1.331,4.537,2.35c1.239,1.021,2.178,2.233,2.816,3.636
				c0.637,1.403,0.957,2.96,0.957,4.673v18.041H95.038c-4.958,0-8.611-0.747-10.962-2.241c-2.351-1.495-3.526-3.754-3.526-6.78
				c0-3.024,1.176-5.283,3.526-6.778c2.351-1.494,6.004-2.242,10.962-2.242H102.69z M88.751,35.214c0,3.464,2.095,5.193,6.287,5.193
				h7.652V30.021h-7.652C90.846,30.021,88.751,31.751,88.751,35.214z"/>
			<path fill="#003764" d="M129.751,44.234c-2.516,0-4.803-0.328-6.861-0.984c-2.06-0.655-3.818-1.603-5.275-2.843
				c-1.457-1.238-2.578-2.733-3.361-4.482c-0.784-1.749-1.176-3.717-1.176-5.904c0-2.186,0.392-4.155,1.176-5.904
				c0.783-1.75,1.904-3.243,3.361-4.483c1.457-1.238,3.216-2.186,5.275-2.843c2.059-0.656,4.346-0.984,6.861-0.984h6.833v-9.84
				h7.653v38.268H129.751z M136.584,40.407V19.634h-6.833c-1.24,0-2.378,0.191-3.417,0.574c-1.038,0.383-1.933,0.994-2.679,1.832
				c-0.748,0.838-1.33,1.914-1.75,3.226c-0.418,1.31-0.629,2.897-0.629,4.755s0.211,3.444,0.629,4.756
				c0.42,1.312,1.002,2.386,1.75,3.226c0.746,0.838,1.641,1.448,2.679,1.831c1.039,0.384,2.177,0.574,3.417,0.574H136.584z"/>
			<path fill="#003764" d="M148.61,15.807h28.428c5.211,0,9.064,0.939,11.562,2.816c2.496,1.877,3.745,4.674,3.745,8.391v17.22
				h-7.654v-17.22c0-2.625-0.655-4.51-1.967-5.658c-1.313-1.148-3.208-1.722-5.686-1.722h-2.734v24.601h-7.652V19.634h-10.387
				v24.601h-7.654V15.807z"/>
			<path fill="#003764" d="M218.858,43.141h-7.107c-5.213,0-9.066-0.938-11.562-2.814c-2.497-1.876-3.745-4.675-3.745-8.392V15.807
				h7.653v16.127c0,2.624,0.657,4.509,1.968,5.657c1.313,1.148,3.207,1.722,5.686,1.722h7.107V15.807h7.653v27.88
				c0,1.712-0.328,3.271-0.984,4.674c-0.655,1.402-1.631,2.615-2.925,3.636c-1.294,1.02-2.916,1.804-4.865,2.35
				c-1.95,0.547-4.219,0.82-6.806,0.82c-0.875,0-1.813-0.064-2.815-0.192c-1.002-0.127-2.014-0.328-3.034-0.601
				c-1.021-0.272-2.015-0.62-2.979-1.039c-0.966-0.42-1.85-0.902-2.651-1.449l2.187-3.28c1.238,0.838,2.624,1.504,4.154,1.996
				c1.531,0.492,3.063,0.738,4.592,0.738c2.734,0,4.83-0.62,6.287-1.857c1.458-1.241,2.188-3.172,2.188-5.796V43.141z"/>
			<path fill="#003764" d="M246.191,14.714c2.441,0,4.692,0.337,6.751,1.012s3.818,1.658,5.275,2.952
				c1.457,1.294,2.598,2.898,3.417,4.812c0.819,1.913,1.229,4.091,1.229,6.532c0,2.478-0.41,4.666-1.229,6.56
				c-0.819,1.896-1.96,3.49-3.417,4.783c-1.457,1.294-3.217,2.278-5.275,2.952c-2.059,0.674-4.31,1.012-6.751,1.012
				c-2.479,0-4.738-0.337-6.778-1.012c-2.042-0.673-3.791-1.657-5.249-2.952c-1.458-1.293-2.597-2.888-3.416-4.783
				c-0.82-1.895-1.229-4.082-1.229-6.56c0-2.441,0.409-4.619,1.229-6.532c0.819-1.914,1.958-3.518,3.416-4.812
				c1.458-1.293,3.207-2.277,5.249-2.952C241.453,15.051,243.712,14.714,246.191,14.714z M246.191,41.774
				c1.166,0,2.259-0.219,3.28-0.656c1.02-0.437,1.913-1.121,2.678-2.05c0.766-0.929,1.377-2.139,1.832-3.635
				c0.455-1.494,0.684-3.297,0.684-5.412c0-2.113-0.229-3.918-0.684-5.412c-0.455-1.494-1.066-2.706-1.832-3.636
				c-0.765-0.929-1.658-1.612-2.678-2.05c-1.021-0.438-2.114-0.656-3.28-0.656c-1.167,0-2.261,0.218-3.28,0.656
				c-1.021,0.438-1.914,1.121-2.679,2.05c-0.765,0.93-1.376,2.142-1.831,3.636c-0.457,1.494-0.684,3.299-0.684,5.412
				c0,2.114,0.227,3.918,0.684,5.412c0.455,1.496,1.066,2.706,1.831,3.635s1.657,1.613,2.679,2.05
				C243.931,41.556,245.024,41.774,246.191,41.774z"/>
		</g>
		<g>
			<path fill="#003764" d="M89.192,63.464c1.358,0,2.037,0.679,2.037,2.037v5.431c0,1.357-0.679,2.037-2.037,2.037h-4.073v-9.505
				H89.192z M90.551,65.501c0-0.906-0.453-1.358-1.358-1.358h-3.395v8.146h3.395c0.905,0,1.358-0.452,1.358-1.357V65.501z"/>
			<path fill="#003764" d="M100.104,70.933c0,1.357-0.678,2.037-2.037,2.037H96.71c-1.357,0-2.037-0.68-2.037-2.037v-2.715
				c0-1.358,0.68-2.037,2.037-2.037h1.357c1.359,0,2.037,0.679,2.037,2.037V70.933z M95.353,70.933c0,0.906,0.453,1.357,1.357,1.357
				h1.357c0.906,0,1.359-0.452,1.359-1.357v-2.715c0-0.906-0.453-1.358-1.359-1.358H96.71c-0.904,0-1.357,0.452-1.357,1.358V70.933z
				"/>
			<path fill="#003764" d="M104.024,66.18l0.203,0.679c0.453-0.453,1.132-0.679,2.037-0.679h0.679c1.358,0,2.037,0.679,2.037,2.037
				v4.752h-0.679v-4.752c0-0.906-0.453-1.358-1.358-1.358h-0.679c-0.905,0-1.584,0.226-2.037,0.679v5.432h-0.68v-6.79H104.024z"/>
			<path fill="#003764" d="M117.856,63.464v9.505h-0.477l-0.203-0.68c-0.453,0.453-1.131,0.68-2.037,0.68h-0.679
				c-1.358,0-2.037-0.68-2.037-2.037v-2.715c0-1.358,0.679-2.037,2.037-2.037h0.679c0.906,0,1.584,0.227,2.037,0.679v-3.395H117.856
				z M115.14,72.29c0.906,0,1.584-0.225,2.037-0.678v-4.074c-0.453-0.453-1.131-0.679-2.037-0.679h-0.679
				c-0.905,0-1.358,0.452-1.358,1.358v2.715c0,0.906,0.453,1.357,1.358,1.357H115.14z"/>
			<path fill="#003764" d="M121.978,69.915v1.018c0,0.906,0.453,1.357,1.358,1.357h3.056v0.68h-3.056
				c-1.358,0-2.037-0.68-2.037-2.037v-2.715c0-1.358,0.679-2.037,2.037-2.037h1.358c1.357,0,2.037,0.679,2.037,2.037v1.697H121.978z
				 M121.978,69.235h4.074v-1.018c0-0.906-0.453-1.358-1.357-1.358h-1.358c-0.905,0-1.358,0.452-1.358,1.358V69.235z"/>
			<path fill="#003764" d="M136.674,66.18h2.376v0.679h-2.376v4.073c0,0.906,0.452,1.357,1.358,1.357h1.018v0.68h-1.018
				c-1.358,0-2.037-0.68-2.037-2.037v-4.073h-1.019V66.18h1.019v-2.037l0.679-0.679V66.18z"/>
			<path fill="#003764" d="M147.45,72.97l-0.203-0.68c-0.453,0.453-1.133,0.68-2.037,0.68h-0.68c-1.357,0-2.037-0.68-2.037-2.037
				V66.18h0.68v4.752c0,0.906,0.453,1.357,1.357,1.357h0.68c0.904,0,1.584-0.225,2.037-0.678V66.18h0.679v6.79H147.45z"/>
			<path fill="#003764" d="M156.646,66.18l0.203,0.679c0.453-0.453,1.132-0.679,2.037-0.679h0.68c1.357,0,2.037,0.679,2.037,2.037
				v4.752h-0.68v-4.752c0-0.906-0.453-1.358-1.357-1.358h-0.68c-0.905,0-1.584,0.226-2.037,0.679v5.432h-0.679v-6.79H156.646z"/>
			<path fill="#003764" d="M165.724,69.915v1.018c0,0.906,0.453,1.357,1.358,1.357h3.056v0.68h-3.056
				c-1.358,0-2.036-0.68-2.036-2.037v-2.715c0-1.358,0.678-2.037,2.036-2.037h1.358c1.357,0,2.037,0.679,2.037,2.037v1.697H165.724z
				 M165.724,69.235h4.074v-1.018c0-0.906-0.452-1.358-1.357-1.358h-1.358c-0.905,0-1.358,0.452-1.358,1.358V69.235z"/>
			<path fill="#003764" d="M174.6,75.686v-0.679h2.037c1.357,0,2.036-0.68,2.036-2.037v-0.68c-0.452,0.453-1.131,0.68-2.036,0.68
				h-0.679c-1.358,0-2.037-0.68-2.037-2.037v-2.715c0-1.358,0.679-2.037,2.037-2.037h0.679c0.905,0,1.584,0.227,2.036,0.679
				l0.203-0.679h0.477v6.79c0,1.811-0.905,2.716-2.716,2.716H174.6z M176.637,72.29c0.905,0,1.584-0.225,2.036-0.678v-4.074
				c-0.452-0.453-1.131-0.679-2.036-0.679h-0.679c-0.905,0-1.358,0.452-1.358,1.358v2.715c0,0.906,0.453,1.357,1.358,1.357H176.637z
				"/>
			<path fill="#003764" d="M188.228,70.933c0,1.357-0.679,2.037-2.037,2.037h-1.357c-1.358,0-2.037-0.68-2.037-2.037v-2.715
				c0-1.358,0.679-2.037,2.037-2.037h1.357c1.358,0,2.037,0.679,2.037,2.037V70.933z M183.475,70.933
				c0,0.906,0.454,1.357,1.358,1.357h1.357c0.906,0,1.358-0.452,1.358-1.357v-2.715c0-0.906-0.452-1.358-1.358-1.358h-1.357
				c-0.904,0-1.358,0.452-1.358,1.358V70.933z"/>
			<path fill="#003764" d="M192.351,70.933c0,0.906,0.453,1.357,1.357,1.357h2.716v0.68h-2.716c-1.357,0-2.036-0.68-2.036-2.037
				v-2.715c0-1.358,0.679-2.037,2.036-2.037h2.716v0.679h-2.716c-0.904,0-1.357,0.452-1.357,1.358V70.933z"/>
			<path fill="#003764" d="M200.547,63.464v1.358h-0.679v-1.358H200.547z M200.547,66.18v6.79h-0.679v-6.79H200.547z"/>
			<path fill="#003764" d="M209.423,70.933c0,1.357-0.68,2.037-2.037,2.037h-1.358c-1.358,0-2.036-0.68-2.036-2.037v-2.715
				c0-1.358,0.678-2.037,2.036-2.037h1.358c1.357,0,2.037,0.679,2.037,2.037V70.933z M204.669,70.933
				c0,0.906,0.453,1.357,1.358,1.357h1.358c0.904,0,1.357-0.452,1.357-1.357v-2.715c0-0.906-0.453-1.358-1.357-1.358h-1.358
				c-0.905,0-1.358,0.452-1.358,1.358V70.933z"/>
			<path fill="#003764" d="M218.347,70.933c0,0.906,0.453,1.357,1.357,1.357h2.716v0.68h-2.716c-1.357,0-2.037-0.68-2.037-2.037
				v-2.715c0-1.358,0.68-2.037,2.037-2.037h2.716v0.679h-2.716c-0.904,0-1.357,0.452-1.357,1.358V70.933z"/>
			<path fill="#003764" d="M225.864,72.97v-6.79h0.475l0.204,0.679c0.452-0.453,1.132-0.679,2.036-0.679v0.679
				c-0.904,0-1.584,0.226-2.036,0.679v5.432H225.864z"/>
			<path fill="#003764" d="M232.362,69.915v1.018c0,0.906,0.453,1.357,1.358,1.357h3.056v0.68h-3.056
				c-1.358,0-2.036-0.68-2.036-2.037v-2.715c0-1.358,0.678-2.037,2.036-2.037h1.358c1.357,0,2.036,0.679,2.036,2.037v1.697H232.362z
				 M232.362,69.235h4.074v-1.018c0-0.906-0.453-1.358-1.357-1.358h-1.358c-0.905,0-1.358,0.452-1.358,1.358V69.235z"/>
			<path fill="#003764" d="M241.238,70.933c0,0.906,0.452,1.357,1.358,1.357h2.715v0.68h-2.715c-1.358,0-2.037-0.68-2.037-2.037
				v-2.715c0-1.358,0.679-2.037,2.037-2.037h2.715v0.679h-2.715c-0.906,0-1.358,0.452-1.358,1.358V70.933z"/>
			<path fill="#003764" d="M249.435,69.915v1.018c0,0.906,0.453,1.357,1.357,1.357h3.056v0.68h-3.056
				c-1.357,0-2.037-0.68-2.037-2.037v-2.715c0-1.358,0.68-2.037,2.037-2.037h1.358c1.358,0,2.037,0.679,2.037,2.037v1.697H249.435z
				 M249.435,69.235h4.074v-1.018c0-0.906-0.453-1.358-1.358-1.358h-1.358c-0.904,0-1.357,0.452-1.357,1.358V69.235z"/>
		</g>
		<path fill="#FFA400" d="M50.642,27.218L25.827,52.036l-8.139-7.997l16.684-16.82L17.688,10.397L25.827,2.4L50.642,27.218z"/>
		<polygon fill="#FFA400" points="45.642,15.057 57.706,27.218 45.847,39.176 54.063,47.132 73.972,27.218 53.858,7.102 		"/>
		<g>
			<path fill="#003764" d="M36.921,19.998L16.923,39.954l-9.885-9.802l3.721-3.757l6.136,5.911l16.868-16.922
				c-3.134-3.282-7.553-5.325-12.449-5.325c-9.509,0-17.213,7.707-17.213,17.216c0,9.507,7.704,17.214,17.213,17.214
				c9.508,0,17.217-7.707,17.217-17.214C38.53,24.675,37.952,22.21,36.921,19.998z"/>
			<path fill="#FFFFFF" d="M10.759,26.395l-3.721,3.757l9.885,9.802l19.998-19.956c-0.799-1.707-1.868-3.267-3.158-4.614
				L16.895,32.306L10.759,26.395z"/>
		</g>
	</g>
</g>
<g id="guias" display="none">
</g>
</svg>
