<?xml version="1.0" encoding="utf-8"?>
<!-- Generator: Adobe Illustrator 16.0.0, SVG Export Plug-In . SVG Version: 6.00 Build 0)  -->
<!DOCTYPE svg PUBLIC "-//W3C//DTD SVG 1.1//EN" "http://www.w3.org/Graphics/SVG/1.1/DTD/svg11.dtd">
<svg version="1.1" xmlns="http://www.w3.org/2000/svg" xmlns:xlink="http://www.w3.org/1999/xlink" x="0px" y="0px" width="250px"
	 height="250px" viewBox="0 0 250 250" enable-background="new 0 0 250 250" xml:space="preserve">
<g id="Layer_1" display="none">
</g>
<g id="base-encabezado">
</g>
<g id="base-elementos_sobrepuestos">
</g>
<g id="textos_1">
</g>
<g id="elementos_para_exportar">
	<g>
		<g>
			<circle fill="#D9D9D9" cx="124.936" cy="125.027" r="115.963"/>
			<path fill="#FFFFFF" d="M124.936,244.021c-65.613,0-118.994-53.381-118.994-118.995S59.322,6.033,124.936,6.033
				S243.93,59.413,243.93,125.027S190.549,244.021,124.936,244.021z M124.936,12.095c-62.271,0-112.932,50.661-112.932,112.932
				s50.66,112.933,112.932,112.933s112.933-50.662,112.933-112.933S187.207,12.095,124.936,12.095z"/>
		</g>
		<g>
			<g>
				<path fill="#FFFFFF" d="M124.936,96.892c-9.853,0-17.839,7.989-17.839,17.839c0,9.854,7.986,17.839,17.839,17.839
					c9.852,0,17.839-7.986,17.839-17.839C142.774,104.881,134.787,96.892,124.936,96.892z M172.507,79.053h-14.271
					c-1.963,0-4.077-1.521-4.696-3.384l-3.689-11.072c-0.621-1.861-2.734-3.383-4.697-3.383h-40.435
					c-1.962,0-4.076,1.521-4.696,3.384L96.333,75.67c-0.622,1.861-2.734,3.382-4.697,3.382H77.364
					c-6.541,0-11.892,5.352-11.892,11.893v53.517c0,6.541,5.351,11.893,11.892,11.893h95.143c6.541,0,11.894-5.353,11.894-11.893
					V90.946C184.4,84.405,179.048,79.053,172.507,79.053z M124.936,144.462c-16.42,0-29.732-13.311-29.732-29.731
					C95.203,98.313,108.516,85,124.936,85c16.419,0,29.732,13.313,29.732,29.731C154.668,131.151,141.354,144.462,124.936,144.462z
					 M168.344,99.262c-2.298,0-4.161-1.863-4.161-4.162c0-2.297,1.863-4.162,4.161-4.162c2.301,0,4.163,1.865,4.163,4.162
					C172.507,97.399,170.643,99.262,168.344,99.262z"/>
			</g>
		</g>
		<g>
			<path fill="#FFFFFF" d="M78.615,185.188c-0.143,1.217-0.591,2.156-1.348,2.818c-0.756,0.661-1.762,0.991-3.015,0.991
				c-1.359,0-2.449-0.487-3.269-1.462c-0.818-0.974-1.229-2.279-1.229-3.912v-1.106c0-1.069,0.191-2.01,0.573-2.821
				c0.382-0.812,0.924-1.435,1.624-1.869c0.701-0.435,1.512-0.652,2.436-0.652c1.22,0,2.201,0.341,2.938,1.023
				c0.737,0.683,1.167,1.627,1.288,2.833H77.09c-0.131-0.92-0.417-1.585-0.857-1.998c-0.441-0.413-1.055-0.619-1.844-0.619
				c-0.97,0-1.73,0.359-2.281,1.076c-0.551,0.718-0.826,1.738-0.826,3.061v1.116c0,1.25,0.261,2.244,0.783,2.981
				c0.521,0.738,1.251,1.108,2.188,1.108c0.843,0,1.49-0.191,1.94-0.573c0.449-0.382,0.748-1.047,0.896-1.996H78.615z"/>
			<path fill="#FFFFFF" d="M87.04,185.829h-4.822l-1.082,3.011h-1.563l4.394-11.507h1.327l4.402,11.507h-1.557L87.04,185.829z
				 M82.678,184.588h3.911l-1.959-5.382L82.678,184.588z"/>
			<path fill="#FFFFFF" d="M93.204,177.333l3.761,9.389l3.763-9.389h1.968v11.507h-1.517v-4.481l0.142-4.837l-3.778,9.318h-1.161
				l-3.77-9.294l0.15,4.813v4.481h-1.517v-11.507H93.204z"/>
			<path fill="#FFFFFF" d="M105.375,188.84v-11.507h3.761c1.249,0,2.188,0.258,2.819,0.775c0.627,0.516,0.943,1.28,0.943,2.292
				c0,0.537-0.152,1.013-0.459,1.427c-0.305,0.414-0.722,0.733-1.247,0.96c0.621,0.174,1.112,0.504,1.473,0.992
				s0.541,1.068,0.541,1.743c0,1.033-0.335,1.844-1.004,2.435c-0.668,0.59-1.613,0.885-2.836,0.885H105.375z M106.893,182.241h2.292
				c0.664,0,1.194-0.167,1.591-0.499c0.399-0.333,0.598-0.784,0.598-1.354c0-0.634-0.184-1.094-0.553-1.382
				c-0.369-0.288-0.932-0.432-1.685-0.432h-2.243V182.241z M106.893,183.458v4.141h2.504c0.707,0,1.264-0.184,1.673-0.55
				c0.408-0.366,0.612-0.87,0.612-1.513c0-1.386-0.754-2.079-2.261-2.079H106.893z"/>
			<path fill="#FFFFFF" d="M117.079,188.84h-1.519v-11.507h1.519V188.84z"/>
			<path fill="#FFFFFF" d="M126.35,185.829h-4.82l-1.084,3.011h-1.564l4.395-11.507h1.327l4.402,11.507h-1.558L126.35,185.829z
				 M121.987,184.588h3.911l-1.959-5.382L121.987,184.588z"/>
			<path fill="#FFFFFF" d="M134.773,184.185h-2.703v4.655h-1.524v-11.507h3.81c1.295,0,2.293,0.295,2.99,0.885
				c0.698,0.591,1.048,1.449,1.048,2.577c0,0.716-0.194,1.341-0.581,1.873c-0.387,0.532-0.926,0.93-1.615,1.194l2.702,4.884v0.095
				h-1.627L134.773,184.185z M132.07,182.944h2.331c0.754,0,1.353-0.195,1.799-0.586c0.445-0.39,0.668-0.913,0.668-1.567
				c0-0.712-0.212-1.259-0.636-1.639c-0.424-0.38-1.038-0.573-1.838-0.578h-2.324V182.944z"/>
			<path fill="#FFFFFF" d="M146.051,187.599h5.453v1.241h-6.977v-11.507h1.523V187.599z"/>
			<path fill="#FFFFFF" d="M161.573,183.458c0,1.127-0.189,2.111-0.568,2.952c-0.38,0.84-0.918,1.482-1.614,1.924
				c-0.693,0.443-1.507,0.664-2.434,0.664c-0.906,0-1.709-0.222-2.41-0.667c-0.7-0.445-1.245-1.08-1.632-1.905
				c-0.387-0.824-0.586-1.779-0.597-2.865v-0.83c0-1.107,0.192-2.084,0.576-2.932c0.385-0.848,0.93-1.498,1.633-1.948
				s1.508-0.676,2.414-0.676c0.923,0,1.734,0.223,2.438,0.668c0.702,0.445,1.245,1.091,1.625,1.936
				c0.379,0.846,0.568,1.83,0.568,2.952V183.458z M160.063,182.715c0-1.365-0.273-2.412-0.821-3.142
				c-0.547-0.729-1.313-1.094-2.3-1.094c-0.959,0-1.715,0.365-2.264,1.094c-0.551,0.73-0.834,1.743-0.85,3.039v0.846
				c0,1.322,0.277,2.362,0.833,3.118s1.321,1.134,2.296,1.134c0.98,0,1.74-0.357,2.276-1.071c0.538-0.714,0.813-1.738,0.829-3.07
				V182.715z"/>
			<path fill="#FFFFFF" d="M172.345,187.331c-0.39,0.558-0.935,0.976-1.632,1.252c-0.697,0.276-1.511,0.415-2.439,0.415
				c-0.937,0-1.77-0.22-2.496-0.659c-0.727-0.44-1.29-1.066-1.688-1.877s-0.602-1.751-0.612-2.821v-1.004
				c0-1.733,0.404-3.077,1.213-4.031c0.81-0.953,1.945-1.43,3.411-1.43c1.199,0,2.167,0.307,2.899,0.921
				c0.732,0.614,1.181,1.484,1.344,2.612h-1.518c-0.284-1.528-1.191-2.292-2.719-2.292c-1.017,0-1.788,0.357-2.312,1.072
				c-0.523,0.715-0.789,1.75-0.795,3.105v0.941c0,1.292,0.295,2.319,0.886,3.081c0.591,0.762,1.388,1.143,2.395,1.143
				c0.568,0,1.066-0.063,1.494-0.189c0.427-0.127,0.779-0.34,1.058-0.639v-2.579h-2.662v-1.241h4.173V187.331z"/>
			<path fill="#FFFFFF" d="M183.725,183.458c0,1.127-0.189,2.111-0.568,2.952c-0.38,0.84-0.918,1.482-1.612,1.924
				c-0.695,0.443-1.507,0.664-2.434,0.664c-0.906,0-1.71-0.222-2.411-0.667s-1.246-1.08-1.632-1.905
				c-0.388-0.824-0.586-1.779-0.597-2.865v-0.83c0-1.107,0.191-2.084,0.577-2.932c0.384-0.848,0.929-1.498,1.632-1.948
				s1.508-0.676,2.413-0.676c0.923,0,1.735,0.223,2.438,0.668c0.704,0.445,1.245,1.091,1.625,1.936
				c0.379,0.846,0.568,1.83,0.568,2.952V183.458z M182.216,182.715c0-1.365-0.274-2.412-0.823-3.142
				c-0.546-0.729-1.313-1.094-2.3-1.094c-0.958,0-1.712,0.365-2.263,1.094c-0.551,0.73-0.835,1.743-0.851,3.039v0.846
				c0,1.322,0.278,2.362,0.835,3.118c0.555,0.756,1.32,1.134,2.296,1.134c0.979,0,1.738-0.357,2.275-1.071
				c0.538-0.714,0.814-1.738,0.83-3.07V182.715z"/>
		</g>
	</g>
</g>
<g id="guias" display="none">
</g>
</svg>
