<?xml version="1.0" encoding="utf-8"?>
<!-- Generator: Adobe Illustrator 16.0.0, SVG Export Plug-In . SVG Version: 6.00 Build 0)  -->
<!DOCTYPE svg PUBLIC "-//W3C//DTD SVG 1.1//EN" "http://www.w3.org/Graphics/SVG/1.1/DTD/svg11.dtd">
<svg version="1.1" xmlns="http://www.w3.org/2000/svg" xmlns:xlink="http://www.w3.org/1999/xlink" x="0px" y="0px" width="60px"
	 height="60px" viewBox="0 0 60 60" enable-background="new 0 0 60 60" xml:space="preserve">
<g id="Layer_1" display="none">
</g>
<g id="base-encabezado">
</g>
<g id="base-elementos_sobrepuestos">
	<g>
		<path fill="#FFFFFF" d="M29.5,29.982l-10.064,19.99c0.059,0.031,0.12,0.058,0.18,0.088L29.5,30.338V29.982z"/>
		<g>
			<path fill="#F7AD44" d="M30.695,2.281C15.262,2.281,2.75,14.793,2.75,30.227s12.512,27.946,27.945,27.946
				c15.435,0,27.946-12.512,27.946-27.946S46.13,2.281,30.695,2.281z M30.695,52.583c-12.348,0-22.356-10.009-22.356-22.356
				c0-12.348,10.009-22.357,22.356-22.357s22.357,10.009,22.357,22.357C53.053,42.574,43.043,52.583,30.695,52.583z"/>
			<path fill="#FFFFFF" d="M29.5,7.888C18.5,8.249,8.718,18.031,8.356,30.031H29.5V7.888z"/>
			<path fill="#005288" d="M30.695,7.87c-0.233,0-0.195,0.011-1.195,0.018v22.144H8.356c-0.007,0-0.268,0.212-0.268,0.446
				c0,12.114,9.411,21.721,21.411,22.089c1,0.007,0.712,0.018,0.945,0.018c12.348,0,22.482-9.759,22.482-22.106
				c0-0.233,0.114-0.446,0.107-0.446C52.667,17.031,42.81,7.87,30.695,7.87z"/>
		</g>
	</g>
</g>
<g id="textos_1">
</g>
<g id="elementos_para_exportar">
</g>
<g id="guias" display="none">
</g>
</svg>
